<?xml version="1.0" standalone="no"?>
<!DOCTYPE svg PUBLIC "-//W3C//DTD SVG 20010904//EN"
 "http://www.w3.org/TR/2001/REC-SVG-20010904/DTD/svg10.dtd">
<svg version="1.0" xmlns="http://www.w3.org/2000/svg"
 width="700.000000pt" height="700.000000pt" viewBox="0 0 700.000000 700.000000"
 preserveAspectRatio="xMidYMid meet">
<metadata>
Created by potrace 1.14, written by Peter Selinger 2001-2017
</metadata>
<g transform="translate(0.000000,700.000000) scale(0.100000,-0.100000)"
fill="#000000" stroke="none">
<path d="M1985 5630 c-213 -45 -361 -125 -504 -272 -157 -160 -261 -383 -313
-673 -22 -124 -23 -152 -23 -600 0 -444 1 -477 22 -594 111 -610 487 -941
1068 -941 619 0 1005 378 1075 1055 8 73 10 258 7 550 -4 394 -7 452 -26 554
-97 520 -395 848 -840 926 -120 21 -352 19 -466 -5z m427 -522 c145 -67 231
-209 275 -453 21 -118 31 -853 14 -1020 -31 -298 -112 -461 -269 -537 -65 -32
-71 -33 -197 -33 -125 0 -133 1 -195 31 -164 78 -252 249 -280 549 -13 146
-13 749 1 894 27 284 111 468 247 548 71 42 125 53 242 50 89 -2 114 -7 162
-29z"/>
<path d="M4653 5635 c-209 -38 -377 -127 -518 -276 -182 -192 -281 -437 -314
-783 -14 -140 -14 -811 -1 -947 36 -360 133 -608 314 -798 117 -122 252 -200
431 -248 92 -24 116 -26 300 -27 215 -1 297 10 439 60 323 113 529 385 591
779 7 49 15 115 17 145 l3 55 -305 0 -305 0 -3 -50 c-4 -85 -22 -187 -43 -251
-56 -172 -156 -234 -379 -235 -142 -1 -218 23 -293 91 -138 126 -174 355 -164
1058 5 418 15 517 62 657 58 172 144 248 314 276 86 14 228 0 297 -30 63 -28
118 -84 147 -149 26 -57 52 -186 63 -314 l6 -68 304 0 c303 0 304 0 304 21 0
12 -7 69 -15 128 -69 472 -289 767 -655 877 -145 43 -439 58 -597 29z"/>
<path d="M920 1560 l0 -300 2580 0 2580 0 0 300 0 300 -2580 0 -2580 0 0 -300z"/>
</g>
</svg>
